<?xml version="1.0" standalone="no"?>
<!DOCTYPE svg PUBLIC "-//W3C//DTD SVG 20010904//EN"
 "http://www.w3.org/TR/2001/REC-SVG-20010904/DTD/svg10.dtd">
<svg version="1.0" xmlns="http://www.w3.org/2000/svg"
 width="585.000000pt" height="1024.000000pt" viewBox="0 0 585.000000 1024.000000"
 preserveAspectRatio="xMidYMid meet">
<metadata>
Created by potrace 1.16, written by Peter Selinger 2001-2019
</metadata>
<g transform="translate(0.000000,1024.000000) scale(0.100000,-0.100000)"
fill="#000000" stroke="none">
<path d="M3939 7506 c-78 -28 -152 -101 -343 -345 -162 -205 -201 -261 -251
-360 -30 -61 -39 -72 -47 -58 -22 41 -43 -2 -54 -113 l-7 -70 -66 0 c-65 0
-214 -17 -399 -46 -136 -21 -129 -23 -142 43 -7 31 -21 77 -32 102 l-19 46
-17 -23 c-17 -22 -17 -21 -122 110 -58 73 -135 169 -171 215 -165 208 -336
354 -463 396 -62 21 -79 21 -122 1 -24 -12 -41 -32 -61 -72 -26 -53 -27 -62
-23 -171 6 -182 5 -342 -5 -522 -6 -125 -5 -183 5 -230 7 -39 12 -131 11 -234
l-1 -170 65 -61 c50 -47 63 -65 58 -82 -6 -24 22 -74 61 -111 31 -29 32 -36 6
-68 -27 -34 -25 -51 5 -59 23 -6 23 -7 9 -30 -15 -22 -15 -24 10 -35 17 -8 26
-20 26 -36 0 -13 7 -40 15 -60 8 -19 15 -44 15 -55 0 -25 -43 -109 -96 -187
-43 -62 -47 -81 -18 -81 20 0 18 -4 -16 -52 -38 -53 -38 -68 0 -68 28 0 30 -2
19 -21 -26 -49 -32 -93 -39 -274 -6 -168 -10 -199 -34 -268 -33 -99 -64 -159
-138 -275 -60 -92 -67 -122 -29 -122 30 0 33 -15 16 -72 -20 -68 -19 -191 2
-254 21 -63 65 -132 143 -225 242 -287 581 -497 1188 -735 168 -66 153 -67
268 18 378 282 693 609 807 838 36 73 42 96 45 161 l4 75 29 -4 c26 -4 29 -2
29 25 0 17 -13 94 -30 171 -17 78 -30 172 -30 210 l0 68 35 13 c96 34 145 250
102 446 -20 89 -39 135 -89 212 l-40 62 13 58 c21 98 17 246 -10 348 -17 64
-22 105 -18 145 6 67 50 160 79 168 20 5 21 22 3 65 -6 15 -4 17 19 11 20 -5
26 -2 26 10 0 22 -27 75 -52 102 -19 21 -19 22 11 70 66 103 74 140 82 369 5
133 13 234 23 275 37 152 28 379 -24 585 -47 186 -123 265 -221 231z m88 -78
c45 -49 83 -197 103 -406 20 -208 -7 -372 -90 -550 -27 -56 -44 -100 -39 -96
5 3 28 30 50 61 22 30 42 53 44 51 1 -2 0 -66 -4 -143 -7 -135 -9 -143 -47
-224 l-40 -85 -39 36 c-61 53 -185 141 -192 134 -3 -3 59 -71 137 -151 111
-112 139 -145 122 -145 -24 0 -26 -7 -13 -43 7 -19 6 -27 -4 -31 -8 -3 -23
-22 -33 -42 l-19 -38 -23 62 c-13 34 -23 62 -24 62 -1 0 -1 -66 -1 -147 0
-145 -1 -150 -32 -218 -36 -79 -56 -165 -31 -130 8 11 26 56 41 100 14 44 28
73 31 65 32 -91 41 -144 40 -262 0 -71 -4 -132 -9 -137 -10 -10 -168 171 -260
296 -22 29 -41 51 -43 49 -6 -6 47 -106 88 -166 21 -30 83 -113 139 -185 55
-71 101 -133 101 -137 0 -4 -13 -3 -30 2 -18 5 -48 4 -82 -5 -29 -7 -93 -16
-143 -20 -49 -4 -103 -13 -120 -20 -40 -17 -90 -72 -105 -116 -30 -84 38 -189
121 -189 35 0 42 4 60 34 23 40 55 51 86 30 69 -45 -43 -121 -138 -94 -59 17
-65 12 -30 -24 42 -43 122 -87 186 -101 47 -11 50 -14 47 -41 -1 -16 -12 -37
-24 -47 -11 -9 -93 -41 -182 -69 -137 -44 -172 -52 -236 -52 -97 1 -140 18
-276 109 -121 82 -169 104 -186 87 -19 -19 1 -42 89 -99 114 -73 118 -77 64
-69 -72 11 -156 62 -219 134 -59 68 -114 108 -166 123 -17 5 -80 16 -140 24
-137 18 -236 64 -350 161 -67 57 -76 62 -60 34 33 -56 107 -132 168 -172 68
-44 124 -63 251 -83 118 -19 181 -51 250 -128 96 -106 174 -144 342 -167 44
-6 135 -28 203 -50 205 -67 374 -72 491 -15 29 14 56 25 59 25 4 0 10 -31 14
-69 3 -37 13 -87 21 -111 18 -50 14 -57 -20 -42 -14 7 -28 12 -30 12 -3 0 -4
-51 -3 -112 2 -106 0 -117 -26 -168 -98 -194 -329 -449 -646 -716 -134 -113
-176 -144 -192 -144 -15 0 -55 15 -247 94 -294 121 -535 246 -701 364 -171
122 -356 317 -417 439 -35 71 -36 75 -30 160 3 49 13 108 22 133 15 43 15 45
-6 61 l-22 17 30 38 c62 78 103 169 150 328 l9 29 23 -52 c50 -118 138 -242
277 -392 114 -124 201 -233 278 -349 73 -112 196 -330 196 -350 0 -7 3 -11 6
-7 9 8 -32 149 -71 242 -70 171 -175 323 -344 499 -157 164 -248 308 -309 492
-58 173 -63 266 -22 410 l19 64 -25 0 c-29 0 -30 5 -4 37 24 31 26 51 5 59
-12 5 -9 13 16 42 17 19 47 67 65 106 38 79 38 98 -3 179 -13 26 -21 52 -18
57 3 5 -5 16 -17 24 -20 14 -21 19 -10 36 7 11 9 20 5 20 -5 0 -15 5 -23 10
-12 7 -1 23 55 77 39 38 81 89 94 113 28 51 26 50 -68 -32 -58 -50 -67 -51
-106 -7 l-20 22 23 -5 c14 -4 22 -2 22 6 0 25 -76 121 -127 160 l-52 41 0 123
c-1 67 1 122 3 122 2 0 34 -30 71 -67 58 -59 64 -63 49 -33 -9 19 -36 60 -59
90 -79 103 -80 108 -79 270 3 241 3 580 1 672 -2 102 17 141 71 146 98 10 323
-184 534 -461 139 -182 255 -314 287 -325 20 -7 30 -19 34 -41 9 -45 52 -85
82 -77 13 3 88 13 167 22 79 8 181 19 228 24 47 5 110 10 141 10 70 0 79 10
86 91 4 44 9 57 15 45 5 -9 12 -16 17 -16 4 0 27 42 51 93 52 111 84 158 263
396 178 236 202 265 257 306 54 41 97 45 127 13z m28 -2678 c5 -15 12 -19 26
-15 17 6 19 1 19 -52 0 -140 -46 -277 -97 -289 -26 -7 -115 12 -136 29 -11 9
-12 20 -6 43 7 23 20 36 59 54 73 34 150 123 150 173 0 8 -3 8 -12 -1 -26 -26
-78 -8 -78 27 0 21 30 51 51 51 10 0 21 -9 24 -20z m-115 -411 c0 -20 -64 -71
-120 -98 -50 -24 -66 -26 -185 -26 -80 0 -138 5 -150 12 -19 11 -18 12 10 18
17 4 55 15 85 25 30 10 104 25 163 34 60 9 121 23 135 31 32 17 62 19 62 4z"/>
<path d="M3735 7148 c-172 -190 -261 -364 -254 -496 3 -46 1 -56 -11 -53 -8 2
-33 5 -55 7 l-40 5 56 -30 c33 -17 80 -56 113 -92 31 -34 56 -56 56 -48 0 8
-16 53 -35 99 -68 166 -38 276 147 540 43 62 77 115 75 117 -3 2 -26 -20 -52
-49z"/>
<path d="M1755 6915 c-16 -139 -12 -371 8 -445 19 -68 74 -196 82 -188 2 2 -5
33 -15 69 -36 117 -52 232 -59 439 -6 195 -7 201 -16 125z"/>
<path d="M2200 6856 c0 -2 15 -35 34 -72 88 -181 111 -271 102 -394 -13 -166
-59 -285 -106 -273 -32 8 -82 70 -122 150 l-39 78 6 -58 c7 -73 43 -145 92
-185 l38 -31 -55 -50 c-51 -46 -53 -50 -24 -42 45 13 104 52 146 99 45 49 58
76 88 167 29 91 62 148 123 213 71 75 23 67 -60 -11 -35 -33 -36 -32 -48 55
-12 92 -59 202 -128 301 -36 52 -47 64 -47 53z"/>
<path d="M3710 6696 c-64 -94 -74 -156 -24 -156 24 0 24 0 9 -37 -9 -21 -22
-64 -30 -96 -13 -56 -13 -58 11 -86 20 -24 84 -59 84 -46 0 2 -13 17 -30 33
-16 17 -30 39 -30 49 0 10 18 69 39 131 22 61 35 114 31 117 -5 3 -22 -3 -38
-12 -17 -10 -33 -15 -37 -12 -3 3 8 39 25 79 16 41 28 76 26 78 -2 2 -18 -17
-36 -42z"/>
<path d="M3680 5800 c-33 -35 -45 -89 -35 -158 7 -50 23 -85 31 -66 3 6 25 9
57 6 46 -4 57 -1 84 22 17 14 38 46 46 70 14 41 14 47 -2 78 -42 78 -131 101
-181 48z"/>
<path d="M2770 5703 c-28 -6 -173 -150 -164 -164 3 -5 13 -9 23 -9 10 0 28
-11 41 -24 31 -35 103 -66 147 -66 53 0 193 48 193 66 0 12 4 12 21 4 50 -27
36 3 -40 86 -101 110 -129 124 -221 107z"/>
<path d="M2102 5393 c-6 -21 -16 -78 -23 -127 -6 -49 -20 -118 -30 -154 -10
-36 -17 -67 -15 -69 2 -2 19 14 38 36 45 53 68 129 68 227 0 122 -16 159 -38
87z"/>
<path d="M3415 4038 c-57 -93 -126 -178 -211 -257 -42 -39 -73 -71 -68 -71 4
0 36 16 72 36 121 68 229 205 247 312 4 23 5 42 2 42 -2 0 -21 -28 -42 -62z"/>
<path d="M3681 4029 c0 -8 -19 -71 -42 -139 -54 -165 -141 -338 -262 -520
l-30 -45 58 55 c186 178 318 456 288 610 -6 30 -11 48 -12 39z"/>
</g>
</svg>
